<svg width="1411" height="268" viewBox="0 0 1411 268" fill="none" xmlns="http://www.w3.org/2000/svg">
<path d="M3.72303 207.307C22.7958 226.177 99.1427 258.201 251.948 235.337C442.954 206.758 554.191 127.022 732.62 86.8945C864.315 57.2772 1198.33 14.193 1348.17 67.0278" stroke="#ECECEC" stroke-width="0.936063"/>
<path fill-rule="evenodd" clip-rule="evenodd" d="M1344.52 229.457C1344.52 229.457 1323.79 214.296 1313.88 211.524C1313.88 211.524 1290.87 205.57 1273.88 195.978C1273.88 195.978 1265.35 191.791 1262.07 191.887C1262.07 191.887 1251.87 189.158 1255.45 178.043C1255.45 178.043 1255.39 167.296 1260.27 155.869C1260.27 155.869 1259.67 146.978 1275.61 145.95C1275.61 145.95 1285.91 141.165 1297.02 150.491C1297.02 150.491 1292.45 153.615 1303.91 158.595C1303.91 158.595 1298.83 164.208 1284.15 156.946C1284.15 156.946 1281.5 160.52 1272.31 162.342" fill="#FFF0C6"/>
<path d="M1344.52 229.457C1344.52 229.457 1323.79 214.296 1313.88 211.524C1313.88 211.524 1290.87 205.57 1273.88 195.978C1273.88 195.978 1265.35 191.791 1262.07 191.887C1262.07 191.887 1251.87 189.158 1255.45 178.043C1255.45 178.043 1255.39 167.296 1260.27 155.869C1260.27 155.869 1259.67 146.978 1275.61 145.95C1275.61 145.95 1285.91 141.165 1297.02 150.491C1297.02 150.491 1292.45 153.615 1303.91 158.595C1303.91 158.595 1298.83 164.208 1284.15 156.946C1284.15 156.946 1281.5 160.52 1272.31 162.342" stroke="#DFDFDF" stroke-width="1.0829"/>
<path fill-rule="evenodd" clip-rule="evenodd" d="M1256.06 168.849C1256.06 168.849 1251.13 139.51 1263.24 136.361L1286.77 132.496C1286.77 132.496 1295.38 132.82 1299.89 135.905C1299.89 135.905 1296.53 140.245 1312.32 143.488C1312.32 143.488 1308.24 151.859 1290.09 146.215" fill="#FFF0C6"/>
<path d="M1256.06 168.849C1256.06 168.849 1251.13 139.51 1263.24 136.361L1286.77 132.496C1286.77 132.496 1295.38 132.82 1299.89 135.905C1299.89 135.905 1296.53 140.245 1312.32 143.488C1312.32 143.488 1308.24 151.859 1290.09 146.215" stroke="#DFDFDF" stroke-width="1.0829"/>
<path fill-rule="evenodd" clip-rule="evenodd" d="M1295.68 114.037C1295.68 114.037 1295.73 123.818 1280.28 126.418C1280.28 126.418 1279.06 127.026 1272.71 134.711" fill="#FFF0C6"/>
<path d="M1295.68 114.037C1295.68 114.037 1295.73 123.818 1280.28 126.418C1280.28 126.418 1279.06 127.026 1272.71 134.711" stroke="#DFDFDF" stroke-width="1.0829"/>
<path fill-rule="evenodd" clip-rule="evenodd" d="M1295.97 114.412C1295.97 114.412 1279.86 121.676 1281 112.758C1281 112.758 1275.59 112.41 1268.22 118.575C1268.22 118.575 1254.59 127.739 1253.48 137.186L1255.18 155.041" fill="#FFF0C6"/>
<path d="M1295.97 114.412C1295.97 114.412 1279.86 121.676 1281 112.758C1281 112.758 1275.59 112.41 1268.22 118.575C1268.22 118.575 1254.59 127.739 1253.48 137.186L1255.18 155.041" stroke="#DFDFDF" stroke-width="1.0829"/>
<path fill-rule="evenodd" clip-rule="evenodd" d="M1253.59 144.03L1246.94 133.562C1246.94 133.562 1244.61 131.248 1249.92 125.827C1249.92 125.827 1257.7 116.872 1259.02 113.12C1259.02 113.12 1261.42 117.832 1268.98 107.652C1268.98 107.652 1272.7 111.75 1269.79 116.898" fill="#FFF0C6"/>
<path d="M1253.59 144.03L1246.94 133.562C1246.94 133.562 1244.61 131.248 1249.92 125.827C1249.92 125.827 1257.7 116.872 1259.02 113.12C1259.02 113.12 1261.42 117.832 1268.98 107.652C1268.98 107.652 1272.7 111.75 1269.79 116.898" stroke="#DFDFDF" stroke-width="1.0829"/>
<path fill-rule="evenodd" clip-rule="evenodd" d="M1280.28 126.416C1280.28 126.416 1282.81 131.339 1284.24 132.768Z" fill="#FFF0C6"/>
<path d="M1280.28 126.416C1280.28 126.416 1282.81 131.339 1284.24 132.768" stroke="#DFDFDF" stroke-width="1.0829"/>
<path fill-rule="evenodd" clip-rule="evenodd" d="M1293.69 118.889C1293.69 118.889 1296.18 124.443 1302.96 128.45C1302.96 128.45 1310.87 134.682 1311.2 138.156" fill="#FFF0C6"/>
<path d="M1293.69 118.889C1293.69 118.889 1296.18 124.443 1302.96 128.45C1302.96 128.45 1310.87 134.682 1311.2 138.156" stroke="#DFDFDF" stroke-width="1.0829"/>
<path fill-rule="evenodd" clip-rule="evenodd" d="M1286.7 110.961C1286.7 110.961 1282.02 106.438 1280.71 106.723Z" fill="#FFF0C6"/>
<path d="M1286.7 110.961C1286.7 110.961 1282.02 106.438 1280.71 106.723" stroke="#DFDFDF" stroke-width="1.0829"/>
<path fill-rule="evenodd" clip-rule="evenodd" d="M1268.15 97.0411C1268.15 97.0411 1262.89 94.5533 1264.06 105.557Z" fill="#FFF0C6"/>
<path d="M1268.15 97.0411C1268.15 97.0411 1262.89 94.5533 1264.06 105.557" stroke="#DFDFDF" stroke-width="1.0829"/>
<path fill-rule="evenodd" clip-rule="evenodd" d="M1317.1 142.574C1317.1 142.574 1330.15 156.799 1332.17 162.389C1332.17 162.389 1342.58 178.803 1363.45 190.84" fill="#FFF0C6"/>
<path d="M1317.1 142.574C1317.1 142.574 1330.15 156.799 1332.17 162.389C1332.17 162.389 1342.58 178.803 1363.45 190.84" stroke="#DFDFDF" stroke-width="1.0829"/>
<path fill-rule="evenodd" clip-rule="evenodd" d="M1283.14 158.457C1283.14 158.457 1282.93 173.6 1292.25 181.059Z" fill="#FFF0C6"/>
<path d="M1283.14 158.457C1283.14 158.457 1282.93 173.6 1292.25 181.059" stroke="#DFDFDF" stroke-width="1.0829"/>
<path fill-rule="evenodd" clip-rule="evenodd" d="M1279.22 160.041C1279.22 160.041 1286.18 171.972 1278.2 184.183Z" fill="#FFF0C6"/>
<path d="M1279.22 160.041C1279.22 160.041 1286.18 171.972 1278.2 184.183" stroke="#DFDFDF" stroke-width="1.0829"/>
<path fill-rule="evenodd" clip-rule="evenodd" d="M1274.74 161.793C1274.74 161.793 1275.62 172.914 1266.34 176.899Z" fill="#FFF0C6"/>
<path d="M1274.74 161.793C1274.74 161.793 1275.62 172.914 1266.34 176.899" stroke="#DFDFDF" stroke-width="1.0829"/>
<path fill-rule="evenodd" clip-rule="evenodd" d="M1283.2 91.9434L1279.87 112.622Z" fill="#FFF0C6"/>
<path d="M1283.2 91.9434L1279.87 112.622" stroke="#DFDFDF" stroke-width="1.0829"/>
<path fill-rule="evenodd" clip-rule="evenodd" d="M1268.42 89.9277L1267.7 103.587Z" fill="#FFF0C6"/>
<path d="M1268.42 89.9277L1267.7 103.587" stroke="#DFDFDF" stroke-width="1.0829"/>
<path fill-rule="evenodd" clip-rule="evenodd" d="M1268.52 90.2086C1268.52 90.2086 1278.01 98.6508 1283.2 91.4873C1283.2 91.4873 1282.87 87.8974 1275.71 87.375C1275.71 87.375 1268.5 85.8466 1268.52 90.2086Z" fill="#FFF0C6" stroke="#DFDFDF" stroke-width="1.0829"/>
<path fill-rule="evenodd" clip-rule="evenodd" d="M1279.09 87.3213L1281.71 57.6737L1285.08 56.7055L1281.37 54.1033L1285.51 53.9843L1281.98 50.5676L1283.57 50.2613L1281.84 48.0078L1284.66 48.1127L1282.56 46.119L1284.88 44.3805L1282.51 42.923L1285.76 40.3073L1281.53 34.4922L1278.61 40.2232L1275.62 40.9318L1277.52 42.3718L1275.65 43.2144L1278.42 45.7807L1275.99 46.7858L1278.38 49.1557L1275.5 51.0555L1277.21 52.3966L1274.23 54.0193L1277.26 55.5926L1275.22 57.2493L1277.12 58.2325L1273.82 86.8502L1279.09 87.3213Z" fill="#FFF0C6"/>
<path fill-rule="evenodd" clip-rule="evenodd" d="M1297.39 150.231C1297.39 150.231 1292.24 153.851 1304.2 158.515C1304.2 158.515 1314.36 162.539 1305.54 154.46C1305.54 154.46 1300.91 151.104 1297.39 150.231Z" fill="#FFF0C6"/>
<path fill-rule="evenodd" clip-rule="evenodd" d="M1299.79 135.629C1299.79 135.629 1297.19 141.128 1312.41 143.31C1312.41 143.31 1320.18 143.423 1315.84 140.335C1315.84 140.335 1304.89 133.776 1299.79 135.629Z" fill="#FFF0C6"/>
<path fill-rule="evenodd" clip-rule="evenodd" d="M1280.9 112.481C1280.9 112.481 1279.14 122.231 1295.68 114.037C1295.68 114.037 1300.35 110.633 1293.63 109.58C1293.63 109.58 1285.68 110.229 1280.9 112.481Z" fill="#FFF0C6"/>
<path fill-rule="evenodd" clip-rule="evenodd" d="M1258.91 112.386C1258.91 112.386 1261.98 119.752 1269.98 105.227C1269.98 105.227 1267.28 99.0759 1258.91 112.386Z" fill="#FFF0C6"/>
<path fill-rule="evenodd" clip-rule="evenodd" d="M1267.66 95.1993C1267.66 95.1993 1259.08 89.6524 1263.5 99.6057L1263.97 100.079C1263.97 100.079 1265.92 95.6493 1267.87 97.1222L1267.66 95.1993Z" fill="#FFF0C6"/>
<path d="M1215.82 117.655C1202.97 118.823 1195.59 119.898 1191.05 123.45C1185.73 127.61 1184.46 135.228 1183.06 150.464C1181.61 134.667 1180.3 127.096 1174.46 123.029C1169.93 119.851 1162.59 118.823 1150.3 117.702C1163.1 116.533 1170.54 115.458 1175.02 111.953C1180.4 107.747 1181.66 100.175 1183.06 84.8926C1184.37 98.9602 1185.54 106.485 1189.88 110.831C1194.23 115.178 1201.8 116.393 1215.82 117.655Z" fill="#FFF0C6"/>
</svg>
