<?xml version="1.0" encoding="UTF-8" standalone="no"?><!DOCTYPE svg PUBLIC "-//W3C//DTD SVG 1.1//EN" "http://www.w3.org/Graphics/SVG/1.1/DTD/svg11.dtd"><svg width="100%" height="100%" viewBox="0 0 4000 4000" version="1.1" xmlns="http://www.w3.org/2000/svg" xmlns:xlink="http://www.w3.org/1999/xlink" xml:space="preserve" xmlns:serif="http://www.serif.com/" style="fill-rule:evenodd;clip-rule:evenodd;stroke-linejoin:round;stroke-miterlimit:2;"><rect id="Artboard8" x="0" y="0" width="4000" height="4000" style="fill:none;"/><g><g transform="matrix(654.633,0,0,654.633,1184.2,2220.17)"><path d="M0.476,-0l-0.434,-0c-0.002,-0 -0.003,-0.002 -0.003,-0.006c0,-0.004 0.001,-0.006 0.003,-0.006c0.022,-0 0.038,-0.002 0.049,-0.005c0.011,-0.003 0.018,-0.01 0.021,-0.02c0.004,-0.01 0.006,-0.025 0.006,-0.044l-0,-0.463c-0,-0.019 -0.002,-0.034 -0.006,-0.043c-0.003,-0.01 -0.01,-0.017 -0.021,-0.02c-0.011,-0.004 -0.027,-0.006 -0.049,-0.006c-0.002,0 -0.003,-0.002 -0.003,-0.006c0,-0.004 0.001,-0.006 0.003,-0.006l0.416,0c0.007,0 0.01,0.003 0.01,0.009l0.002,0.13c-0,0.001 -0.002,0.002 -0.005,0.003c-0.004,0 -0.006,-0.001 -0.007,-0.003c-0.008,-0.038 -0.023,-0.066 -0.046,-0.085c-0.024,-0.018 -0.054,-0.028 -0.092,-0.028l-0.041,0c-0.017,0 -0.03,0.002 -0.039,0.006c-0.01,0.003 -0.017,0.009 -0.021,0.018c-0.004,0.008 -0.006,0.019 -0.006,0.033l-0,0.457c-0,0.014 0.002,0.026 0.005,0.035c0.004,0.009 0.01,0.015 0.018,0.019c0.008,0.004 0.02,0.005 0.034,0.005l0.049,0c0.045,0 0.082,-0.01 0.11,-0.032c0.028,-0.022 0.048,-0.055 0.06,-0.097c0,-0.002 0.002,-0.003 0.006,-0.002c0.004,0.001 0.006,0.002 0.006,0.003c-0.003,0.019 -0.005,0.041 -0.007,0.067c-0.002,0.026 -0.003,0.05 -0.003,0.072c0,0.01 -0.005,0.015 -0.015,0.015Zm-0.056,-0.226c-0,-0.028 -0.009,-0.05 -0.028,-0.064c-0.018,-0.015 -0.046,-0.022 -0.084,-0.022l-0.14,-0l-0,-0.026l0.141,0c0.037,0 0.065,-0.006 0.083,-0.019c0.018,-0.013 0.027,-0.031 0.027,-0.055c-0,-0.002 0.002,-0.003 0.005,-0.003c0.004,0 0.006,0.001 0.006,0.003c0,0.021 -0,0.038 -0,0.05c-0.001,0.012 -0.001,0.024 -0.001,0.037c0,0.016 0.001,0.032 0.001,0.047c0.001,0.016 0.002,0.033 0.002,0.052c-0,0.001 -0.002,0.002 -0.006,0.002c-0.004,-0 -0.006,-0.001 -0.006,-0.002Z" style="fill:#023632;fill-rule:nonzero;"/></g><g transform="matrix(654.633,0,0,654.633,1542.28,2220.17)"><path d="M0.208,-0.085c-0,0.02 0.002,0.035 0.007,0.046c0.004,0.01 0.014,0.017 0.029,0.021c0.016,0.004 0.038,0.006 0.068,0.006c0.002,0 0.003,0.002 0.003,0.006c-0,0.004 -0.001,0.006 -0.003,0.006c-0.022,0 -0.045,-0 -0.07,-0.001c-0.025,-0.001 -0.052,-0.001 -0.081,-0.001c-0.024,0 -0.046,0 -0.067,0.001c-0.021,0.001 -0.04,0.001 -0.057,0.001c-0.002,0 -0.003,-0.002 -0.003,-0.006c0,-0.004 0.001,-0.006 0.003,-0.006c0.022,0 0.038,-0.002 0.049,-0.005c0.011,-0.003 0.018,-0.01 0.021,-0.02c0.004,-0.01 0.006,-0.025 0.006,-0.044l-0,-0.463c-0,-0.019 -0.002,-0.034 -0.006,-0.043c-0.003,-0.01 -0.01,-0.017 -0.021,-0.02c-0.011,-0.004 -0.027,-0.006 -0.049,-0.006c-0.002,0 -0.003,-0.002 -0.003,-0.006c0,-0.004 0.001,-0.006 0.003,-0.006c0.017,0 0.036,0.001 0.057,0.002c0.02,0.001 0.042,0.001 0.066,0.001c0.016,0 0.037,-0.001 0.063,-0.003c0.025,-0.002 0.05,-0.003 0.074,-0.003c0.04,0 0.076,0.006 0.108,0.017c0.032,0.011 0.057,0.028 0.076,0.052c0.019,0.024 0.029,0.056 0.03,0.095c0.001,0.034 -0.005,0.064 -0.018,0.09c-0.012,0.025 -0.029,0.046 -0.051,0.062c-0.022,0.017 -0.046,0.029 -0.072,0.038c-0.026,0.008 -0.052,0.012 -0.078,0.012c-0.007,0 -0.015,-0 -0.023,-0.001c-0.009,-0.001 -0.017,-0.002 -0.025,-0.004c-0.002,-0.001 -0.002,-0.003 -0.002,-0.007c0.001,-0.005 0.003,-0.007 0.005,-0.006c0.006,0.001 0.012,0.002 0.018,0.003c0.007,0.001 0.012,0.001 0.017,0.001c0.022,0 0.042,-0.006 0.061,-0.018c0.019,-0.012 0.034,-0.03 0.046,-0.055c0.011,-0.025 0.017,-0.056 0.017,-0.093c0,-0.036 -0.006,-0.066 -0.017,-0.09c-0.011,-0.025 -0.027,-0.044 -0.047,-0.057c-0.021,-0.013 -0.046,-0.019 -0.075,-0.019c-0.015,-0 -0.027,0.001 -0.036,0.004c-0.008,0.003 -0.014,0.009 -0.018,0.019c-0.003,0.009 -0.005,0.024 -0.005,0.043l-0,0.457Z" style="fill:#023632;fill-rule:nonzero;"/></g><g transform="matrix(654.633,0,0,654.633,1901.68,2220.17)"><path d="M0.553,-0.542c-0,-0.019 -0.002,-0.034 -0.006,-0.044c-0.004,-0.01 -0.012,-0.017 -0.024,-0.021c-0.012,-0.004 -0.03,-0.006 -0.055,-0.006c-0.002,0 -0.003,-0.002 -0.003,-0.006c-0,-0.004 0.001,-0.006 0.003,-0.006c0.017,0 0.036,0.001 0.058,0.002c0.021,0.001 0.046,0.001 0.075,0.001c0.023,0 0.046,-0 0.069,-0.001c0.022,-0.001 0.042,-0.002 0.059,-0.002c0.002,0 0.003,0.002 0.003,0.006c-0,0.004 -0.001,0.006 -0.003,0.006c-0.023,0 -0.04,0.002 -0.052,0.006c-0.012,0.003 -0.02,0.01 -0.024,0.02c-0.004,0.009 -0.006,0.024 -0.006,0.043l0,0.463c0,0.019 0.002,0.034 0.006,0.044c0.004,0.01 0.012,0.017 0.024,0.02c0.012,0.003 0.029,0.005 0.052,0.005c0.002,0 0.003,0.002 0.003,0.006c-0,0.004 -0.001,0.006 -0.003,0.006c-0.017,0 -0.037,-0 -0.059,-0.001c-0.023,-0.001 -0.046,-0.001 -0.069,-0.001c-0.029,0 -0.054,0 -0.075,0.001c-0.022,0.001 -0.041,0.001 -0.058,0.001c-0.002,0 -0.003,-0.002 -0.003,-0.006c-0,-0.004 0.001,-0.006 0.003,-0.006c0.025,0 0.043,-0.002 0.055,-0.005c0.012,-0.003 0.02,-0.01 0.024,-0.02c0.004,-0.01 0.006,-0.025 0.006,-0.044l-0,-0.461Zm-0.395,0.23l-0,-0.026l0.438,0l-0,0.026l-0.438,-0Zm-0.044,0.231l-0,-0.463c-0,-0.019 -0.002,-0.034 -0.006,-0.043c-0.004,-0.01 -0.012,-0.017 -0.023,-0.02c-0.012,-0.004 -0.029,-0.006 -0.052,-0.006c-0.001,0 -0.002,-0.002 -0.002,-0.006c-0,-0.004 0.001,-0.006 0.002,-0.006c0.017,0 0.037,0.001 0.058,0.002c0.021,0.001 0.044,0.001 0.067,0.001c0.028,0 0.054,-0 0.076,-0.001c0.022,-0.001 0.042,-0.002 0.059,-0.002c0.002,0 0.002,0.002 0.002,0.006c0,0.004 -0,0.006 -0.002,0.006c-0.024,0 -0.042,0.002 -0.054,0.006c-0.012,0.004 -0.02,0.011 -0.024,0.021c-0.004,0.01 -0.006,0.025 -0.006,0.044l-0,0.461c-0,0.019 0.002,0.034 0.006,0.044c0.004,0.01 0.012,0.017 0.024,0.02c0.012,0.003 0.03,0.005 0.054,0.005c0.002,0 0.002,0.002 0.002,0.006c0,0.004 -0,0.006 -0.002,0.006c-0.018,0 -0.038,-0 -0.06,-0.001c-0.021,-0.001 -0.047,-0.001 -0.075,-0.001c-0.024,0 -0.046,0 -0.068,0.001c-0.022,0.001 -0.041,0.001 -0.058,0.001c-0.002,0 -0.002,-0.002 -0.002,-0.006c-0,-0.004 0,-0.006 0.002,-0.006c0.023,0 0.041,-0.002 0.052,-0.005c0.012,-0.003 0.019,-0.01 0.024,-0.02c0.004,-0.01 0.006,-0.025 0.006,-0.044Z" style="fill:#023632;fill-rule:nonzero;"/></g><g transform="matrix(654.633,0,0,654.633,2400.51,2220.17)"><path d="M0.312,-0.281l0.132,-0.217c0.021,-0.035 0.029,-0.063 0.024,-0.084c-0.005,-0.021 -0.023,-0.031 -0.054,-0.031c-0.001,0 -0.002,-0.002 -0.002,-0.006c-0,-0.004 0.001,-0.006 0.002,-0.006c0.021,0 0.04,0.001 0.058,0.001c0.018,0.001 0.041,0.002 0.071,0.002c0.017,0 0.03,-0.001 0.041,-0.002c0.01,-0 0.022,-0.001 0.037,-0.001c0.001,0 0.002,0.002 0.002,0.006c0,0.004 -0.001,0.006 -0.002,0.006c-0.014,0 -0.03,0.005 -0.048,0.016c-0.018,0.01 -0.036,0.024 -0.053,0.042c-0.018,0.019 -0.034,0.04 -0.049,0.065l-0.139,0.225l-0.02,-0.016Zm-0.042,0.008l-0.161,-0.246c-0.024,-0.037 -0.044,-0.062 -0.06,-0.075c-0.016,-0.013 -0.031,-0.019 -0.046,-0.019c-0.002,-0 -0.003,-0.002 -0.003,-0.006c0,-0.004 0.001,-0.006 0.003,-0.006c0.01,-0 0.021,0 0.033,0.001c0.011,0.001 0.022,0.002 0.032,0.002c0.019,-0 0.038,-0 0.057,-0.001c0.02,0 0.039,-0 0.057,-0.001c0.017,-0.001 0.032,-0.001 0.044,-0.001c0.001,-0 0.002,0.002 0.002,0.006c-0,0.004 -0.001,0.006 -0.002,0.006c-0.022,-0 -0.035,0.006 -0.04,0.017c-0.004,0.011 -0.001,0.025 0.011,0.043l0.153,0.235l-0.08,0.045Zm-0.008,-0.037l0.095,-0.009l-0,0.238c-0,0.019 0.002,0.034 0.005,0.044c0.004,0.01 0.011,0.017 0.021,0.02c0.011,0.003 0.027,0.005 0.049,0.005c0.002,-0 0.003,0.002 0.003,0.006c0,0.004 -0.001,0.006 -0.003,0.006c-0.016,-0 -0.035,-0 -0.056,-0.001c-0.02,-0.001 -0.043,-0.001 -0.067,-0.001c-0.024,-0 -0.046,0 -0.068,0.001c-0.021,0.001 -0.04,0.001 -0.057,0.001c-0.001,-0 -0.002,-0.002 -0.002,-0.006c-0,-0.004 0.001,-0.006 0.002,-0.006c0.022,-0 0.038,-0.002 0.05,-0.005c0.011,-0.003 0.018,-0.01 0.022,-0.02c0.004,-0.01 0.006,-0.025 0.006,-0.044l-0,-0.229Z" style="fill:#023632;fill-rule:nonzero;"/></g><g transform="matrix(654.633,0,0,654.633,2803.76,2220.17)"><path d="M0.538,-0c-0.01,-0 -0.027,-0.013 -0.05,-0.038c-0.024,-0.025 -0.052,-0.062 -0.085,-0.109c-0.032,-0.048 -0.069,-0.105 -0.11,-0.171l0.08,-0.024c0.054,0.081 0.1,0.145 0.139,0.194c0.038,0.048 0.072,0.083 0.102,0.104c0.03,0.021 0.058,0.032 0.085,0.032c0.002,0 0.002,0.002 0.002,0.006c0,0.004 -0,0.006 -0.002,0.006l-0.161,0Zm-0.227,-0.628c0.058,0 0.103,0.011 0.135,0.034c0.031,0.023 0.047,0.055 0.047,0.095c-0,0.038 -0.011,0.072 -0.033,0.102c-0.022,0.03 -0.05,0.053 -0.084,0.07c-0.034,0.016 -0.071,0.025 -0.11,0.025c-0.008,-0 -0.017,-0 -0.026,-0.001c-0.009,0 -0.018,-0 -0.025,-0.001l-0,0.223c-0,0.019 0.001,0.034 0.005,0.044c0.003,0.01 0.011,0.017 0.021,0.02c0.011,0.003 0.028,0.005 0.05,0.005c0.001,-0 0.002,0.002 0.002,0.006c-0,0.004 -0.001,0.006 -0.003,0.006c-0.016,-0 -0.035,-0 -0.056,-0.001c-0.021,-0.001 -0.043,-0.001 -0.068,-0.001c-0.023,-0 -0.046,0 -0.067,0.001c-0.021,0.001 -0.04,0.001 -0.057,0.001c-0.002,-0 -0.003,-0.002 -0.003,-0.006c0,-0.004 0.001,-0.006 0.003,-0.006c0.022,-0 0.038,-0.002 0.049,-0.005c0.011,-0.003 0.018,-0.01 0.022,-0.02c0.004,-0.01 0.006,-0.025 0.006,-0.044l0,-0.463c0,-0.019 -0.002,-0.034 -0.005,-0.043c-0.004,-0.01 -0.011,-0.017 -0.022,-0.02c-0.011,-0.004 -0.027,-0.006 -0.049,-0.006c-0.001,0 -0.002,-0.002 -0.002,-0.006c-0,-0.004 0.001,-0.006 0.002,-0.006c0.017,0 0.036,0.001 0.057,0.002c0.02,0.001 0.043,0.001 0.066,0.001c0.021,0 0.046,-0.001 0.072,-0.003c0.027,-0.002 0.051,-0.003 0.073,-0.003Zm0.083,0.164c0,-0.039 -0.004,-0.068 -0.013,-0.089c-0.009,-0.021 -0.022,-0.036 -0.038,-0.044c-0.016,-0.008 -0.035,-0.012 -0.056,-0.012c-0.026,-0 -0.045,0.005 -0.056,0.014c-0.011,0.01 -0.016,0.027 -0.016,0.053l-0,0.211c0.009,0.002 0.019,0.003 0.03,0.003c0.01,0.001 0.02,0.001 0.028,0.001c0.044,0 0.076,-0.011 0.094,-0.033c0.018,-0.023 0.027,-0.057 0.027,-0.104Z" style="fill:#023632;fill-rule:nonzero;"/></g><g transform="matrix(654.633,0,0,654.633,3254.8,2220.17)"><path d="M0.476,-0l-0.434,-0c-0.002,-0 -0.003,-0.002 -0.003,-0.006c0,-0.004 0.001,-0.006 0.003,-0.006c0.022,-0 0.038,-0.002 0.049,-0.005c0.011,-0.003 0.018,-0.01 0.021,-0.02c0.004,-0.01 0.006,-0.025 0.006,-0.044l-0,-0.463c-0,-0.019 -0.002,-0.034 -0.006,-0.043c-0.003,-0.01 -0.01,-0.017 -0.021,-0.02c-0.011,-0.004 -0.027,-0.006 -0.049,-0.006c-0.002,0 -0.003,-0.002 -0.003,-0.006c0,-0.004 0.001,-0.006 0.003,-0.006l0.416,0c0.007,0 0.01,0.003 0.01,0.009l0.002,0.13c-0,0.001 -0.002,0.002 -0.005,0.003c-0.004,0 -0.006,-0.001 -0.007,-0.003c-0.008,-0.038 -0.023,-0.066 -0.046,-0.085c-0.024,-0.018 -0.054,-0.028 -0.092,-0.028l-0.041,0c-0.017,0 -0.03,0.002 -0.039,0.006c-0.01,0.003 -0.017,0.009 -0.021,0.018c-0.004,0.008 -0.006,0.019 -0.006,0.033l-0,0.457c-0,0.014 0.002,0.026 0.005,0.035c0.004,0.009 0.01,0.015 0.018,0.019c0.008,0.004 0.02,0.005 0.034,0.005l0.049,0c0.045,0 0.082,-0.01 0.11,-0.032c0.028,-0.022 0.048,-0.055 0.06,-0.097c0,-0.002 0.002,-0.003 0.006,-0.002c0.004,0.001 0.006,0.002 0.006,0.003c-0.003,0.019 -0.005,0.041 -0.007,0.067c-0.002,0.026 -0.003,0.05 -0.003,0.072c0,0.01 -0.005,0.015 -0.015,0.015Zm-0.056,-0.226c-0,-0.028 -0.009,-0.05 -0.028,-0.064c-0.018,-0.015 -0.046,-0.022 -0.084,-0.022l-0.14,-0l-0,-0.026l0.141,0c0.037,0 0.065,-0.006 0.083,-0.019c0.018,-0.013 0.027,-0.031 0.027,-0.055c-0,-0.002 0.002,-0.003 0.005,-0.003c0.004,0 0.006,0.001 0.006,0.003c0,0.021 -0,0.038 -0,0.05c-0.001,0.012 -0.001,0.024 -0.001,0.037c0,0.016 0.001,0.032 0.001,0.047c0.001,0.016 0.002,0.033 0.002,0.052c-0,0.001 -0.002,0.002 -0.006,0.002c-0.004,-0 -0.006,-0.001 -0.006,-0.002Z" style="fill:#023632;fill-rule:nonzero;"/></g><g transform="matrix(654.633,0,0,654.633,3612.89,2220.17)"></g><g><path d="M428.062,2445.19c-1.459,-1.816 -1.747,-4.308 -0.74,-6.41c1.007,-2.101 3.13,-3.438 5.46,-3.438c97.412,-0.097 582.911,-0.097 680.322,-0.097c2.367,0.001 4.524,1.359 5.547,3.494c1.023,2.134 0.731,4.666 -0.751,6.512c-2.177,1.939 -3.948,3.917 -4.769,5.524c-2.707,5.3 0,17.778 0,17.778l-680.375,-1.124c-0,-0 2.706,-11.354 -0,-16.654c-0.821,-1.607 -2.592,-3.585 -4.694,-5.585Z" style="fill:#023632;"/><path d="M391.604,2523.34l762.724,0l-0,-0.028c-0.001,-7.652 -5.376,-14.251 -12.869,-15.799c-10.869,-2.251 -16.656,-11.215 -20.293,-23.013l-696.4,-0c0.881,10.632 -6.075,17.733 -20.201,21.605c-7.645,2.249 -12.894,9.265 -12.894,17.234c-0.067,0.001 -0.067,0.001 -0.067,0.001Z" style="fill:#023632;"/><path d="M392.432,1513.46l702.588,0l30.183,-18.404l-0,-18.404l-766.079,-0l0,18.404l33.308,18.404Z" style="fill:#023632;"/><path d="M409.086,1546.88l-16.654,-15.395l699.463,-0l-16.654,15.395l-666.155,0Z" style="fill:#023632;"/><path d="M901.01,2360.28l123.5,0c22.477,0 44.291,-7.612 61.888,-21.595l33.465,-26.593l0,107.953l-699.463,0l36.341,-29.921c22.952,-18.896 36.249,-47.068 36.249,-76.797l-0,-610.46c-0,0 2.039,-5.305 9.032,-22.728c4.16,-10.366 5.381,-28.117 4.346,-35.548c-2.776,-19.921 -21.339,-38.204 -37.28,-46.82c-15.941,-8.615 -42.565,-9.599 -58.364,-4.874c-16.654,4.98 -28.757,12.884 -37.084,25.335c-8.327,12.451 -7.381,37.296 -1.83,49.747c5.552,12.451 16.26,21.076 27.363,26.056c9.931,4.455 27.11,5.832 37.881,3.416c11.103,-2.49 21.571,-9.812 27.122,-17.283c5.552,-7.47 8.621,-17.907 5.928,-27.57c-2.776,-9.961 -8.558,-16.786 -16.396,-20.331c-17.066,-7.717 -30.326,-2.229 -33.308,7.471c0,-0 16.042,-11.808 24.981,-0c12.613,16.662 -10.1,34.703 -20.522,35.596c-20.004,1.715 -34.293,-7.764 -36.934,-25.137c-2.177,-14.316 3.937,-22.449 10.951,-29.441c9.944,-9.912 26.761,-12.246 39.174,-12.131c19.988,0.184 39.38,16.457 45.144,31.113c5.764,14.655 5.827,38.527 -9.339,56.458c-5.903,6.978 -14.986,14.336 -28.474,18.248c-14.213,4.122 -32.981,4.547 -44.491,1.887c-19.006,-4.392 -36.003,-16.828 -47.105,-31.77c-11.103,-14.941 -13.698,-40.619 -10.922,-58.05c2.776,-17.432 16.8,-34.292 30.679,-44.252c13.707,-9.839 36.445,-16.417 53.864,-18.37c22.205,-2.49 359.379,1.143 359.379,1.143c0,-0 247.931,-1.618 270.136,0.872c17.419,1.954 40.157,8.531 53.865,18.37c13.878,9.961 27.902,26.821 30.678,44.252c2.776,17.431 0.181,43.109 -10.921,58.051c-11.103,14.941 -28.1,27.377 -47.106,31.77c-11.51,2.659 -30.277,2.234 -44.491,-1.888c-13.488,-3.912 -22.57,-11.269 -28.473,-18.248c-15.167,-17.93 -15.103,-41.803 -9.34,-56.458c5.764,-14.656 25.156,-30.929 45.145,-31.113c12.412,-0.115 29.229,2.219 39.173,12.131c7.014,6.992 13.128,15.125 10.951,29.441c-2.641,17.374 -16.929,26.852 -36.933,25.138c-10.422,-0.894 -33.136,-18.935 -20.523,-35.597c8.939,-11.808 24.981,-0 24.981,-0c-2.982,-9.7 -16.241,-15.188 -33.308,-7.471c-7.838,3.545 -13.62,10.37 -16.396,20.331c-2.693,9.664 0.376,20.1 5.928,27.57c5.551,7.471 16.02,14.793 27.122,17.283c10.771,2.416 27.951,1.039 37.881,-3.416c11.103,-4.98 21.812,-13.605 27.363,-26.056c5.551,-12.451 6.498,-37.296 -1.829,-49.747c-8.327,-12.451 -20.431,-20.355 -37.085,-25.335c-8.268,-2.473 -25.938,-4.883 -40.174,-1.324c-5.436,1.359 -17.413,5.204 -25.571,12.349c-11.302,9.898 -18.377,23.646 -18.377,23.646l-88.471,0l0,250.664l-49.962,0l0,-250.664l-33.307,0l-0,250.664l-49.962,0l-0,-250.664l-33.308,0l0,250.664l-49.961,0l-0,-250.664l-61.414,0l3.125,312.343l297.21,0c22.143,0 42.549,-11.989 53.328,-31.33l15.847,-28.434l0,179.294l-15.847,-28.435c-10.779,-19.341 -31.185,-31.33 -53.328,-31.33l-297.21,0l-0,358.589l58.289,0l-0,-297.696l49.961,0l0,297.696l33.308,0l-0,-297.696l49.962,0l-0,297.696l33.307,0l0,-297.696l49.962,0l0,297.696Z" style="fill:#023632;"/></g></g></svg>