<?xml version="1.0" encoding="UTF-8" standalone="no"?><!DOCTYPE svg PUBLIC "-//W3C//DTD SVG 1.1//EN" "http://www.w3.org/Graphics/SVG/1.1/DTD/svg11.dtd"><svg width="100%" height="100%" viewBox="0 0 4000 4000" version="1.1" xmlns="http://www.w3.org/2000/svg" xmlns:xlink="http://www.w3.org/1999/xlink" xml:space="preserve" xmlns:serif="http://www.serif.com/" style="fill-rule:evenodd;clip-rule:evenodd;stroke-linejoin:round;stroke-miterlimit:2;"><rect id="Artboard8" x="-0" y="0" width="4000" height="4000" style="fill:none;"/><g><path d="M1328.31,2908.59c-1.828,-1.699 -2.43,-4.344 -1.517,-6.667c0.913,-2.322 3.154,-3.85 5.65,-3.85c156.65,-0.082 1281.06,-0.082 1437.71,-0.082c2.529,0 4.8,1.548 5.725,3.902c0.925,2.354 0.316,5.034 -1.537,6.756c-8.45,6.711 -18.088,15.323 -21.182,21.381c-5.584,10.936 0,36.68 0,36.68l-1403.72,-2.32c-0,-0 5.584,-23.424 -0,-34.36c-3.094,-6.058 -12.732,-14.67 -21.127,-21.44Z" style="fill:#023632;"/><path d="M1264.53,3079.74l1573.62,-0l0,-0.342c-0,-15.664 -11.033,-29.161 -26.385,-32.276c-22.53,-4.589 -34.511,-23.116 -42.033,-47.517l-1436.78,0c1.818,21.935 -12.533,36.587 -41.677,44.574c-15.772,4.642 -26.603,19.118 -26.603,35.56c-0.138,0 -0.138,0.001 -0.138,0.001Z" style="fill:#023632;"/><path d="M1266.24,996.201l1449.55,-0l62.272,-37.971l0,-37.972l-1580.54,0l-0,37.972l68.719,37.971Z" style="fill:#023632;"/><path d="M1300.6,1065.13l-34.359,-31.763l1443.1,0l-34.36,31.763l-1374.38,0Z" style="fill:#023632;"/><path d="M2315.51,2743.32l254.8,-0c46.373,-0 91.379,-15.705 127.685,-44.555l69.043,-54.865l0,222.724l-1443.1,0l74.978,-61.731c47.353,-38.986 74.787,-97.108 74.787,-158.445l-0,-1259.48c-0,0 4.207,-10.945 18.634,-46.892c8.584,-21.387 11.103,-58.008 8.967,-73.34c-5.727,-41.102 -44.027,-78.821 -76.915,-96.597c-32.888,-17.775 -87.818,-19.805 -120.414,-10.057c-34.36,10.275 -59.331,26.583 -76.511,52.271c-17.18,25.688 -15.227,76.948 -3.774,102.636c11.453,25.688 33.547,43.482 56.454,53.758c20.488,9.19 55.931,12.032 78.154,7.048c22.906,-5.138 44.505,-20.245 55.958,-35.658c11.453,-15.413 17.785,-36.944 12.229,-56.882c-5.726,-20.55 -17.656,-34.633 -33.828,-41.945c-35.21,-15.922 -62.566,-4.6 -68.719,15.413c0,-0 33.098,-24.361 51.54,-0c26.023,34.376 -20.839,71.599 -42.341,73.441c-41.272,3.537 -70.75,-16.018 -76.2,-51.863c-4.49,-29.536 8.123,-46.315 22.595,-60.74c20.514,-20.45 55.211,-25.266 80.82,-25.03c41.24,0.38 81.249,33.955 93.14,64.192c11.891,30.236 12.023,79.488 -19.269,116.481c-12.179,14.398 -30.918,29.578 -58.745,37.649c-29.325,8.505 -68.046,9.382 -91.792,3.894c-39.213,-9.061 -74.28,-34.72 -97.186,-65.546c-22.906,-30.826 -28.259,-83.804 -22.533,-119.768c5.727,-35.963 34.662,-70.748 63.295,-91.299c28.281,-20.298 75.193,-33.869 111.131,-37.9c45.813,-5.137 741.456,2.358 741.456,2.358c-0,0 511.519,-3.338 557.332,1.8c35.938,4.03 82.85,17.601 111.131,37.9c28.633,20.55 57.568,55.335 63.295,91.299c5.726,35.964 0.373,88.941 -22.533,119.767c-22.906,30.826 -57.973,56.485 -97.186,65.547c-23.746,5.487 -62.467,4.61 -91.792,-3.894c-27.827,-8.071 -46.566,-23.251 -58.746,-37.649c-31.291,-36.993 -31.159,-86.245 -19.268,-116.482c11.891,-30.236 51.9,-63.812 93.14,-64.191c25.609,-0.236 60.305,4.579 80.82,25.029c14.472,14.426 27.085,31.205 22.595,60.74c-5.45,35.845 -34.929,55.401 -76.2,51.864c-21.502,-1.843 -68.364,-39.065 -42.341,-73.442c18.442,-24.361 51.54,0 51.54,0c-6.153,-20.012 -33.509,-31.335 -68.719,-15.413c-16.172,7.313 -28.102,21.395 -33.828,41.946c-5.556,19.937 0.776,41.469 12.229,56.882c11.453,15.413 33.052,30.519 55.958,35.657c22.223,4.984 57.666,2.143 78.154,-7.048c22.907,-10.275 45.001,-28.069 56.454,-53.758c11.453,-25.688 13.406,-76.947 -3.774,-102.635c-17.18,-25.689 -42.151,-41.996 -76.511,-52.272c-17.058,-5.101 -53.515,-10.073 -82.885,-2.731c-11.215,2.804 -35.927,10.737 -52.759,25.478c-23.317,20.422 -37.912,48.786 -37.912,48.786l-182.531,0l0,517.16l-103.079,-0l0,-517.16l-68.719,0l0,517.16l-103.078,-0l-0,-517.16l-68.72,0l0,517.16l-103.078,-0l-0,-517.16l-126.706,0l6.447,644.413l613.192,0c45.683,0 87.785,-24.735 110.024,-64.639l32.695,-58.665l-0,369.913l-32.695,-58.665c-22.239,-39.905 -64.341,-64.64 -110.024,-64.64l-613.192,0l0,739.826l120.259,-0l-0,-614.194l103.078,0l0,614.194l68.72,-0l-0,-614.194l103.078,0l0,614.194l68.719,-0l0,-614.194l103.079,0l0,614.194Z" style="fill:#023632;"/></g></svg>