<?xml version="1.0" encoding="UTF-8" standalone="no"?><!DOCTYPE svg PUBLIC "-//W3C//DTD SVG 1.1//EN" "http://www.w3.org/Graphics/SVG/1.1/DTD/svg11.dtd"><svg width="100%" height="100%" viewBox="0 0 4000 4000" version="1.1" xmlns="http://www.w3.org/2000/svg" xmlns:xlink="http://www.w3.org/1999/xlink" xml:space="preserve" xmlns:serif="http://www.serif.com/" style="fill-rule:evenodd;clip-rule:evenodd;stroke-linejoin:round;stroke-miterlimit:2;"><rect id="Artboard8" x="0" y="0" width="4000" height="4000" style="fill:none;"/><g><g transform="matrix(852.332,0,0,852.332,416.051,2930.95)"><path d="M0.476,-0l-0.434,-0c-0.002,-0 -0.003,-0.002 -0.003,-0.006c0,-0.004 0.001,-0.006 0.003,-0.006c0.022,-0 0.038,-0.002 0.049,-0.005c0.011,-0.003 0.018,-0.01 0.021,-0.02c0.004,-0.01 0.006,-0.025 0.006,-0.044l-0,-0.463c-0,-0.019 -0.002,-0.034 -0.006,-0.043c-0.003,-0.01 -0.01,-0.017 -0.021,-0.02c-0.011,-0.004 -0.027,-0.006 -0.049,-0.006c-0.002,0 -0.003,-0.002 -0.003,-0.006c0,-0.004 0.001,-0.006 0.003,-0.006l0.416,0c0.007,0 0.01,0.003 0.01,0.009l0.002,0.13c-0,0.001 -0.002,0.002 -0.005,0.003c-0.004,0 -0.006,-0.001 -0.007,-0.003c-0.008,-0.038 -0.023,-0.066 -0.046,-0.085c-0.024,-0.018 -0.054,-0.028 -0.092,-0.028l-0.041,0c-0.017,0 -0.03,0.002 -0.039,0.006c-0.01,0.003 -0.017,0.009 -0.021,0.018c-0.004,0.008 -0.006,0.019 -0.006,0.033l-0,0.457c-0,0.014 0.002,0.026 0.005,0.035c0.004,0.009 0.01,0.015 0.018,0.019c0.008,0.004 0.02,0.005 0.034,0.005l0.049,0c0.045,0 0.082,-0.01 0.11,-0.032c0.028,-0.022 0.048,-0.055 0.06,-0.097c0,-0.002 0.002,-0.003 0.006,-0.002c0.004,0.001 0.006,0.002 0.006,0.003c-0.003,0.019 -0.005,0.041 -0.007,0.067c-0.002,0.026 -0.003,0.05 -0.003,0.072c0,0.01 -0.005,0.015 -0.015,0.015Zm-0.056,-0.226c-0,-0.028 -0.009,-0.05 -0.028,-0.064c-0.018,-0.015 -0.046,-0.022 -0.084,-0.022l-0.14,-0l-0,-0.026l0.141,0c0.037,0 0.065,-0.006 0.083,-0.019c0.018,-0.013 0.027,-0.031 0.027,-0.055c-0,-0.002 0.002,-0.003 0.005,-0.003c0.004,0 0.006,0.001 0.006,0.003c0,0.021 -0,0.038 -0,0.05c-0.001,0.012 -0.001,0.024 -0.001,0.037c0,0.016 0.001,0.032 0.001,0.047c0.001,0.016 0.002,0.033 0.002,0.052c-0,0.001 -0.002,0.002 -0.006,0.002c-0.004,-0 -0.006,-0.001 -0.006,-0.002Z" style="fill:#f5f0e1;fill-rule:nonzero;"/></g><g transform="matrix(852.332,0,0,852.332,882.276,2930.95)"><path d="M0.208,-0.085c-0,0.02 0.002,0.035 0.007,0.046c0.004,0.01 0.014,0.017 0.029,0.021c0.016,0.004 0.038,0.006 0.068,0.006c0.002,0 0.003,0.002 0.003,0.006c-0,0.004 -0.001,0.006 -0.003,0.006c-0.022,0 -0.045,-0 -0.07,-0.001c-0.025,-0.001 -0.052,-0.001 -0.081,-0.001c-0.024,0 -0.046,0 -0.067,0.001c-0.021,0.001 -0.04,0.001 -0.057,0.001c-0.002,0 -0.003,-0.002 -0.003,-0.006c0,-0.004 0.001,-0.006 0.003,-0.006c0.022,0 0.038,-0.002 0.049,-0.005c0.011,-0.003 0.018,-0.01 0.021,-0.02c0.004,-0.01 0.006,-0.025 0.006,-0.044l-0,-0.463c-0,-0.019 -0.002,-0.034 -0.006,-0.043c-0.003,-0.01 -0.01,-0.017 -0.021,-0.02c-0.011,-0.004 -0.027,-0.006 -0.049,-0.006c-0.002,0 -0.003,-0.002 -0.003,-0.006c0,-0.004 0.001,-0.006 0.003,-0.006c0.017,0 0.036,0.001 0.057,0.002c0.02,0.001 0.042,0.001 0.066,0.001c0.016,0 0.037,-0.001 0.063,-0.003c0.025,-0.002 0.05,-0.003 0.074,-0.003c0.04,0 0.076,0.006 0.108,0.017c0.032,0.011 0.057,0.028 0.076,0.052c0.019,0.024 0.029,0.056 0.03,0.095c0.001,0.034 -0.005,0.064 -0.018,0.09c-0.012,0.025 -0.029,0.046 -0.051,0.062c-0.022,0.017 -0.046,0.029 -0.072,0.038c-0.026,0.008 -0.052,0.012 -0.078,0.012c-0.007,0 -0.015,-0 -0.023,-0.001c-0.009,-0.001 -0.017,-0.002 -0.025,-0.004c-0.002,-0.001 -0.002,-0.003 -0.002,-0.007c0.001,-0.005 0.003,-0.007 0.005,-0.006c0.006,0.001 0.012,0.002 0.018,0.003c0.007,0.001 0.012,0.001 0.017,0.001c0.022,0 0.042,-0.006 0.061,-0.018c0.019,-0.012 0.034,-0.03 0.046,-0.055c0.011,-0.025 0.017,-0.056 0.017,-0.093c0,-0.036 -0.006,-0.066 -0.017,-0.09c-0.011,-0.025 -0.027,-0.044 -0.047,-0.057c-0.021,-0.013 -0.046,-0.019 -0.075,-0.019c-0.015,-0 -0.027,0.001 -0.036,0.004c-0.008,0.003 -0.014,0.009 -0.018,0.019c-0.003,0.009 -0.005,0.024 -0.005,0.043l-0,0.457Z" style="fill:#f5f0e1;fill-rule:nonzero;"/></g><g transform="matrix(852.332,0,0,852.332,1350.21,2930.95)"><path d="M0.553,-0.542c-0,-0.019 -0.002,-0.034 -0.006,-0.044c-0.004,-0.01 -0.012,-0.017 -0.024,-0.021c-0.012,-0.004 -0.03,-0.006 -0.055,-0.006c-0.002,0 -0.003,-0.002 -0.003,-0.006c-0,-0.004 0.001,-0.006 0.003,-0.006c0.017,0 0.036,0.001 0.058,0.002c0.021,0.001 0.046,0.001 0.075,0.001c0.023,0 0.046,-0 0.069,-0.001c0.022,-0.001 0.042,-0.002 0.059,-0.002c0.002,0 0.003,0.002 0.003,0.006c-0,0.004 -0.001,0.006 -0.003,0.006c-0.023,0 -0.04,0.002 -0.052,0.006c-0.012,0.003 -0.02,0.01 -0.024,0.02c-0.004,0.009 -0.006,0.024 -0.006,0.043l0,0.463c0,0.019 0.002,0.034 0.006,0.044c0.004,0.01 0.012,0.017 0.024,0.02c0.012,0.003 0.029,0.005 0.052,0.005c0.002,0 0.003,0.002 0.003,0.006c-0,0.004 -0.001,0.006 -0.003,0.006c-0.017,0 -0.037,-0 -0.059,-0.001c-0.023,-0.001 -0.046,-0.001 -0.069,-0.001c-0.029,0 -0.054,0 -0.075,0.001c-0.022,0.001 -0.041,0.001 -0.058,0.001c-0.002,0 -0.003,-0.002 -0.003,-0.006c-0,-0.004 0.001,-0.006 0.003,-0.006c0.025,0 0.043,-0.002 0.055,-0.005c0.012,-0.003 0.02,-0.01 0.024,-0.02c0.004,-0.01 0.006,-0.025 0.006,-0.044l-0,-0.461Zm-0.395,0.23l-0,-0.026l0.438,0l-0,0.026l-0.438,-0Zm-0.044,0.231l-0,-0.463c-0,-0.019 -0.002,-0.034 -0.006,-0.043c-0.004,-0.01 -0.012,-0.017 -0.023,-0.02c-0.012,-0.004 -0.029,-0.006 -0.052,-0.006c-0.001,0 -0.002,-0.002 -0.002,-0.006c-0,-0.004 0.001,-0.006 0.002,-0.006c0.017,0 0.037,0.001 0.058,0.002c0.021,0.001 0.044,0.001 0.067,0.001c0.028,0 0.054,-0 0.076,-0.001c0.022,-0.001 0.042,-0.002 0.059,-0.002c0.002,0 0.002,0.002 0.002,0.006c0,0.004 -0,0.006 -0.002,0.006c-0.024,0 -0.042,0.002 -0.054,0.006c-0.012,0.004 -0.02,0.011 -0.024,0.021c-0.004,0.01 -0.006,0.025 -0.006,0.044l-0,0.461c-0,0.019 0.002,0.034 0.006,0.044c0.004,0.01 0.012,0.017 0.024,0.02c0.012,0.003 0.03,0.005 0.054,0.005c0.002,0 0.002,0.002 0.002,0.006c0,0.004 -0,0.006 -0.002,0.006c-0.018,0 -0.038,-0 -0.06,-0.001c-0.021,-0.001 -0.047,-0.001 -0.075,-0.001c-0.024,0 -0.046,0 -0.068,0.001c-0.022,0.001 -0.041,0.001 -0.058,0.001c-0.002,0 -0.002,-0.002 -0.002,-0.006c-0,-0.004 0,-0.006 0.002,-0.006c0.023,0 0.041,-0.002 0.052,-0.005c0.012,-0.003 0.019,-0.01 0.024,-0.02c0.004,-0.01 0.006,-0.025 0.006,-0.044Z" style="fill:#f5f0e1;fill-rule:nonzero;"/></g><g transform="matrix(852.332,0,0,852.332,1999.68,2930.95)"><path d="M0.312,-0.281l0.132,-0.217c0.021,-0.035 0.029,-0.063 0.024,-0.084c-0.005,-0.021 -0.023,-0.031 -0.054,-0.031c-0.001,0 -0.002,-0.002 -0.002,-0.006c-0,-0.004 0.001,-0.006 0.002,-0.006c0.021,0 0.04,0.001 0.058,0.001c0.018,0.001 0.041,0.002 0.071,0.002c0.017,0 0.03,-0.001 0.041,-0.002c0.01,-0 0.022,-0.001 0.037,-0.001c0.001,0 0.002,0.002 0.002,0.006c0,0.004 -0.001,0.006 -0.002,0.006c-0.014,0 -0.03,0.005 -0.048,0.016c-0.018,0.01 -0.036,0.024 -0.053,0.042c-0.018,0.019 -0.034,0.04 -0.049,0.065l-0.139,0.225l-0.02,-0.016Zm-0.042,0.008l-0.161,-0.246c-0.024,-0.037 -0.044,-0.062 -0.06,-0.075c-0.016,-0.013 -0.031,-0.019 -0.046,-0.019c-0.002,-0 -0.003,-0.002 -0.003,-0.006c0,-0.004 0.001,-0.006 0.003,-0.006c0.01,-0 0.021,0 0.033,0.001c0.011,0.001 0.022,0.002 0.032,0.002c0.019,-0 0.038,-0 0.057,-0.001c0.02,0 0.039,-0 0.057,-0.001c0.017,-0.001 0.032,-0.001 0.044,-0.001c0.001,-0 0.002,0.002 0.002,0.006c-0,0.004 -0.001,0.006 -0.002,0.006c-0.022,-0 -0.035,0.006 -0.04,0.017c-0.004,0.011 -0.001,0.025 0.011,0.043l0.153,0.235l-0.08,0.045Zm-0.008,-0.037l0.095,-0.009l-0,0.238c-0,0.019 0.002,0.034 0.005,0.044c0.004,0.01 0.011,0.017 0.021,0.02c0.011,0.003 0.027,0.005 0.049,0.005c0.002,-0 0.003,0.002 0.003,0.006c0,0.004 -0.001,0.006 -0.003,0.006c-0.016,-0 -0.035,-0 -0.056,-0.001c-0.02,-0.001 -0.043,-0.001 -0.067,-0.001c-0.024,-0 -0.046,0 -0.068,0.001c-0.021,0.001 -0.04,0.001 -0.057,0.001c-0.001,-0 -0.002,-0.002 -0.002,-0.006c-0,-0.004 0.001,-0.006 0.002,-0.006c0.022,-0 0.038,-0.002 0.05,-0.005c0.011,-0.003 0.018,-0.01 0.022,-0.02c0.004,-0.01 0.006,-0.025 0.006,-0.044l-0,-0.229Z" style="fill:#f5f0e1;fill-rule:nonzero;"/></g><g transform="matrix(852.332,0,0,852.332,2524.72,2930.95)"><path d="M0.538,-0c-0.01,-0 -0.027,-0.013 -0.05,-0.038c-0.024,-0.025 -0.052,-0.062 -0.085,-0.109c-0.032,-0.048 -0.069,-0.105 -0.11,-0.171l0.08,-0.024c0.054,0.081 0.1,0.145 0.139,0.194c0.038,0.048 0.072,0.083 0.102,0.104c0.03,0.021 0.058,0.032 0.085,0.032c0.002,0 0.002,0.002 0.002,0.006c0,0.004 -0,0.006 -0.002,0.006l-0.161,0Zm-0.227,-0.628c0.058,0 0.103,0.011 0.135,0.034c0.031,0.023 0.047,0.055 0.047,0.095c-0,0.038 -0.011,0.072 -0.033,0.102c-0.022,0.03 -0.05,0.053 -0.084,0.07c-0.034,0.016 -0.071,0.025 -0.11,0.025c-0.008,-0 -0.017,-0 -0.026,-0.001c-0.009,0 -0.018,-0 -0.025,-0.001l-0,0.223c-0,0.019 0.001,0.034 0.005,0.044c0.003,0.01 0.011,0.017 0.021,0.02c0.011,0.003 0.028,0.005 0.05,0.005c0.001,-0 0.002,0.002 0.002,0.006c-0,0.004 -0.001,0.006 -0.003,0.006c-0.016,-0 -0.035,-0 -0.056,-0.001c-0.021,-0.001 -0.043,-0.001 -0.068,-0.001c-0.023,-0 -0.046,0 -0.067,0.001c-0.021,0.001 -0.04,0.001 -0.057,0.001c-0.002,-0 -0.003,-0.002 -0.003,-0.006c0,-0.004 0.001,-0.006 0.003,-0.006c0.022,-0 0.038,-0.002 0.049,-0.005c0.011,-0.003 0.018,-0.01 0.022,-0.02c0.004,-0.01 0.006,-0.025 0.006,-0.044l0,-0.463c0,-0.019 -0.002,-0.034 -0.005,-0.043c-0.004,-0.01 -0.011,-0.017 -0.022,-0.02c-0.011,-0.004 -0.027,-0.006 -0.049,-0.006c-0.001,0 -0.002,-0.002 -0.002,-0.006c-0,-0.004 0.001,-0.006 0.002,-0.006c0.017,0 0.036,0.001 0.057,0.002c0.02,0.001 0.043,0.001 0.066,0.001c0.021,0 0.046,-0.001 0.072,-0.003c0.027,-0.002 0.051,-0.003 0.073,-0.003Zm0.083,0.164c0,-0.039 -0.004,-0.068 -0.013,-0.089c-0.009,-0.021 -0.022,-0.036 -0.038,-0.044c-0.016,-0.008 -0.035,-0.012 -0.056,-0.012c-0.026,-0 -0.045,0.005 -0.056,0.014c-0.011,0.01 -0.016,0.027 -0.016,0.053l-0,0.211c0.009,0.002 0.019,0.003 0.03,0.003c0.01,0.001 0.02,0.001 0.028,0.001c0.044,0 0.076,-0.011 0.094,-0.033c0.018,-0.023 0.027,-0.057 0.027,-0.104Z" style="fill:#f5f0e1;fill-rule:nonzero;"/></g><g transform="matrix(852.332,0,0,852.332,3111.98,2930.95)"><path d="M0.476,-0l-0.434,-0c-0.002,-0 -0.003,-0.002 -0.003,-0.006c0,-0.004 0.001,-0.006 0.003,-0.006c0.022,-0 0.038,-0.002 0.049,-0.005c0.011,-0.003 0.018,-0.01 0.021,-0.02c0.004,-0.01 0.006,-0.025 0.006,-0.044l-0,-0.463c-0,-0.019 -0.002,-0.034 -0.006,-0.043c-0.003,-0.01 -0.01,-0.017 -0.021,-0.02c-0.011,-0.004 -0.027,-0.006 -0.049,-0.006c-0.002,0 -0.003,-0.002 -0.003,-0.006c0,-0.004 0.001,-0.006 0.003,-0.006l0.416,0c0.007,0 0.01,0.003 0.01,0.009l0.002,0.13c-0,0.001 -0.002,0.002 -0.005,0.003c-0.004,0 -0.006,-0.001 -0.007,-0.003c-0.008,-0.038 -0.023,-0.066 -0.046,-0.085c-0.024,-0.018 -0.054,-0.028 -0.092,-0.028l-0.041,0c-0.017,0 -0.03,0.002 -0.039,0.006c-0.01,0.003 -0.017,0.009 -0.021,0.018c-0.004,0.008 -0.006,0.019 -0.006,0.033l-0,0.457c-0,0.014 0.002,0.026 0.005,0.035c0.004,0.009 0.01,0.015 0.018,0.019c0.008,0.004 0.02,0.005 0.034,0.005l0.049,0c0.045,0 0.082,-0.01 0.11,-0.032c0.028,-0.022 0.048,-0.055 0.06,-0.097c0,-0.002 0.002,-0.003 0.006,-0.002c0.004,0.001 0.006,0.002 0.006,0.003c-0.003,0.019 -0.005,0.041 -0.007,0.067c-0.002,0.026 -0.003,0.05 -0.003,0.072c0,0.01 -0.005,0.015 -0.015,0.015Zm-0.056,-0.226c-0,-0.028 -0.009,-0.05 -0.028,-0.064c-0.018,-0.015 -0.046,-0.022 -0.084,-0.022l-0.14,-0l-0,-0.026l0.141,0c0.037,0 0.065,-0.006 0.083,-0.019c0.018,-0.013 0.027,-0.031 0.027,-0.055c-0,-0.002 0.002,-0.003 0.005,-0.003c0.004,0 0.006,0.001 0.006,0.003c0,0.021 -0,0.038 -0,0.05c-0.001,0.012 -0.001,0.024 -0.001,0.037c0,0.016 0.001,0.032 0.001,0.047c0.001,0.016 0.002,0.033 0.002,0.052c-0,0.001 -0.002,0.002 -0.006,0.002c-0.004,-0 -0.006,-0.001 -0.006,-0.002Z" style="fill:#f5f0e1;fill-rule:nonzero;"/></g><g transform="matrix(852.332,0,0,852.332,3578.2,2930.95)"></g><g><path d="M1616.62,2156.65c-1.572,-1.784 -1.953,-4.324 -0.974,-6.491c0.979,-2.168 3.137,-3.561 5.515,-3.561c109.867,-0.1 707.081,-0.1 816.947,-0.1c2.418,0.001 4.611,1.417 5.606,3.62c0.995,2.202 0.608,4.784 -0.99,6.598c-3.36,2.872 -6.309,5.923 -7.52,8.296c-3.227,6.319 -0,21.195 -0,21.195l-811.138,-1.341c-0,0 3.227,-13.535 -0,-19.854c-1.212,-2.373 -4.161,-5.424 -7.446,-8.362Z" style="fill:#f5f0e1;"/><path d="M1575.01,2251.53l909.312,0c-0,0 -0,-0.058 -0,-0.168c-0.001,-9.064 -6.382,-16.875 -15.264,-18.683c-13.008,-2.658 -19.927,-13.36 -24.272,-27.454l-830.241,-0c1.051,12.675 -7.242,21.141 -24.083,25.757c-9.114,2.682 -15.372,11.047 -15.372,20.547c-0.08,0.001 -0.08,0.001 -0.08,0.001Z" style="fill:#f5f0e1;"/><path d="M1576,1047.56l837.619,0l35.984,-21.941l-0,-21.942l-913.313,-0l0,21.942l39.71,21.941Z" style="fill:#f5f0e1;"/><path d="M1595.85,1087.39l-19.854,-18.354l833.893,-0l-19.854,18.354l-794.185,0Z" style="fill:#f5f0e1;"/><path d="M2182.32,2057.13l147.235,0c26.797,0 52.804,-9.075 73.783,-25.746l39.897,-31.703l-0,128.7l-833.894,0l43.326,-35.671c27.362,-22.528 43.215,-56.114 43.215,-91.557l-0,-727.785c-0,-0 2.431,-6.325 10.768,-27.097c4.96,-12.358 6.415,-33.52 5.181,-42.379c-3.309,-23.75 -25.441,-45.547 -44.445,-55.818c-19.004,-10.272 -50.745,-11.445 -69.581,-5.812c-19.855,5.938 -34.284,15.361 -44.212,30.205c-9.927,14.844 -8.799,44.464 -2.18,59.308c6.618,14.844 19.385,25.126 32.621,31.064c11.839,5.31 32.32,6.952 45.161,4.072c13.237,-2.969 25.717,-11.698 32.336,-20.604c6.618,-8.907 10.277,-21.349 7.066,-32.869c-3.309,-11.875 -10.203,-20.013 -19.547,-24.239c-20.346,-9.2 -36.154,-2.657 -39.709,8.907c-0,-0 19.125,-14.077 29.782,-0c15.037,19.864 -12.042,41.373 -24.467,42.438c-23.848,2.044 -40.883,-9.256 -44.032,-29.969c-2.595,-17.067 4.694,-26.763 13.056,-35.099c11.855,-11.817 31.904,-14.599 46.702,-14.463c23.831,0.219 46.95,19.621 53.821,37.093c6.871,17.472 6.948,45.932 -11.134,67.308c-7.038,8.32 -17.866,17.092 -33.946,21.756c-16.945,4.914 -39.32,5.421 -53.042,2.25c-22.659,-5.236 -42.922,-20.063 -56.159,-37.876c-13.236,-17.813 -16.329,-48.426 -13.02,-69.207c3.309,-20.782 20.029,-40.882 36.574,-52.757c16.343,-11.73 43.451,-19.572 64.218,-21.901c26.472,-2.968 428.448,1.363 428.448,1.363c0,-0 295.581,-1.929 322.053,1.04c20.767,2.329 47.875,10.171 64.218,21.9c16.545,11.875 33.265,31.976 36.574,52.757c3.309,20.782 0.216,51.395 -13.02,69.208c-13.237,17.812 -33.5,32.639 -56.159,37.875c-13.722,3.171 -36.097,2.665 -53.042,-2.25c-16.08,-4.663 -26.908,-13.435 -33.946,-21.755c-18.082,-21.376 -18.006,-49.837 -11.134,-67.309c6.871,-17.472 29.99,-36.873 53.821,-37.093c14.798,-0.136 34.847,2.647 46.701,14.464c8.363,8.335 15.652,18.031 13.057,35.098c-3.149,20.713 -20.184,32.013 -44.032,29.969c-12.425,-1.064 -39.504,-22.573 -24.467,-42.438c10.657,-14.077 29.782,0 29.782,0c-3.555,-11.564 -19.363,-18.107 -39.709,-8.906c-9.345,4.225 -16.238,12.363 -19.547,24.238c-3.211,11.521 0.448,23.963 7.066,32.869c6.619,8.907 19.099,17.636 32.336,20.605c12.841,2.88 33.322,1.238 45.161,-4.073c13.236,-5.938 26.003,-16.22 32.621,-31.064c6.619,-14.844 7.747,-44.464 -2.18,-59.308c-9.928,-14.844 -24.357,-24.267 -44.212,-30.204c-9.857,-2.948 -30.923,-5.821 -47.895,-1.579c-6.481,1.62 -20.76,6.205 -30.486,14.723c-13.474,11.8 -21.908,28.191 -21.908,28.191l-105.475,-0l-0,298.839l-59.564,0l-0,-298.839l-39.709,-0l-0,298.839l-59.564,0l-0,-298.839l-39.709,-0l-0,298.839l-59.564,0l-0,-298.839l-73.217,-0l3.726,372.372l354.331,0c26.398,0 50.727,-14.293 63.578,-37.351l18.892,-33.9l0,213.754l-18.892,-33.9c-12.851,-23.058 -37.18,-37.351 -63.578,-37.351l-354.331,-0l-0,427.506l69.491,0l-0,-354.91l59.564,-0l-0,354.91l39.709,0l-0,-354.91l59.564,-0l-0,354.91l39.709,0l-0,-354.91l59.564,-0l-0,354.91Z" style="fill:#f5f0e1;"/></g></g></svg>