<svg width="16" height="44" viewBox="0 0 16 44" fill="none" xmlns="http://www.w3.org/2000/svg">
<path d="M13.9939 43.1998H1.93464C0.867816 43.1998 0 42.3319 0 41.2651V24.6723C0 24.1975 0.384994 23.8125 0.859841 23.8125H15.0687C15.5436 23.8125 15.9286 24.1975 15.9286 24.6723V41.2651C15.9286 42.3319 15.0607 43.1998 13.9939 43.1998ZM1.71968 25.5322V41.2651C1.71968 41.3835 1.81625 41.4801 1.93464 41.4801H13.9939C14.1123 41.4801 14.2089 41.3835 14.2089 41.2651V25.5322H1.71968Z" fill="#023632"/>
<path d="M12.873 25.5318H3.05906C2.58421 25.5318 2.19922 25.1468 2.19922 24.6719V12.2934C2.19922 11.8186 2.58421 11.4336 3.05906 11.4336H12.873C13.3478 11.4336 13.7328 11.8186 13.7328 12.2934V24.6719C13.7328 25.1468 13.3478 25.5318 12.873 25.5318ZM3.9189 23.8121H12.0131V13.1531H3.9189V23.8121Z" fill="#023632"/>
<path d="M11.3939 2.02329C11.0413 2.02329 10.7381 1.81084 10.6055 1.5073C10.5278 1.36539 10.4913 1.20249 10.5018 1.03791C10.5181 0.790618 10.6407 0.562223 10.8372 0.411923C11.0979 0.213332 11.4645 0.16589 11.7575 0.31074C12.051 0.455591 12.2538 0.741499 12.2538 1.06856V1.16344C12.2538 1.63829 11.8688 2.02329 11.3939 2.02329Z" fill="#023632"/>
<path d="M11.3932 13.158H4.53172C4.05687 13.158 3.67188 12.773 3.67188 12.2982V6.68364C3.67188 6.3209 3.89943 5.9972 4.24119 5.87461C4.54599 5.76461 4.88397 5.8364 5.1174 6.05389C5.50366 6.09503 6.77872 5.65671 8.34556 4.3686C9.61726 3.31521 10.3835 2.25597 10.5775 1.67407C10.7106 1.27396 11.1086 1.03045 11.531 1.09679C11.947 1.16438 12.2531 1.52377 12.2531 1.94571V12.2982C12.2531 12.773 11.8681 13.158 11.3932 13.158ZM5.39156 11.4383H10.5334V4.68559C10.203 5.02734 9.83562 5.36742 9.43969 5.69489C8.11295 6.7856 6.58179 7.64168 5.39156 7.75421V11.4383Z" fill="#023632"/>
<path d="M5.13395 7.7659C4.61545 7.7659 4.17628 7.60342 3.86816 7.22976C2.84164 5.96224 4.42865 3.72655 6.45521 2.06985C8.47465 0.411003 10.9769 -0.711197 12.0102 0.525254C12.0316 0.550865 12.0514 0.577315 12.0694 0.605025C12.1886 0.76876 12.2529 0.961891 12.2529 1.16258V1.94474C12.2529 2.03711 12.2382 2.12905 12.2088 2.21638C11.8675 3.24122 10.8321 4.54106 9.43946 5.6939C8.01492 6.86489 6.35488 7.76579 5.13391 7.76579L5.13395 7.7659ZM10.5331 1.72896C9.98983 1.82888 8.87007 2.31128 7.54505 3.39995C6.18564 4.51129 5.49584 5.54031 5.31355 6.04288C5.8413 5.96185 6.9854 5.48491 8.34524 4.3677C9.53591 3.38148 10.2832 2.39028 10.533 1.79033L10.5331 1.72896Z" fill="#023632"/>
<path d="M11.3915 2.80461C11.3436 2.80461 11.2949 2.80083 11.2462 2.79244C10.8331 2.7219 10.5312 2.36377 10.5312 1.94477V1.16261C10.5312 0.777196 10.7878 0.438795 11.1589 0.334679C11.5275 0.230978 11.9243 0.385481 12.1254 0.715062C12.3017 1.00475 12.4583 1.50269 12.2022 2.23032C12.0792 2.57921 11.7509 2.80461 11.3915 2.80461Z" fill="#023632"/>
</svg>
