<svg width="29" height="32" viewBox="0 0 29 32" fill="none" xmlns="http://www.w3.org/2000/svg">
<path fill-rule="evenodd" clip-rule="evenodd" d="M12.8085 0.000446164C11.9518 0.000446164 11.0963 0.327352 10.4428 0.980928L0.97959 10.4441C-0.32653 11.7502 -0.32653 13.8708 0.97959 15.1756L2.55685 16.7551C2.99181 17.1913 3.69916 17.1913 4.13411 16.7551L16.753 4.135C17.1879 3.70004 17.1879 2.99269 16.753 2.55774L15.1747 0.980482C14.5221 0.326912 13.6656 0 12.8089 0L12.8085 0.000446164ZM12.8085 2.23128C13.0941 2.23128 13.3797 2.34057 13.597 2.55818L14.3855 3.34669L3.34548 14.3867L2.55698 13.5982C2.12202 13.1633 2.12202 12.4572 2.55698 12.021L12.0202 2.5578C12.2378 2.34019 12.5231 2.23089 12.8087 2.23089L12.8085 2.23128ZM18.9389 8.92377C18.7491 8.92701 18.5584 8.97954 18.3901 9.08113C18.0522 9.2818 17.8458 9.64556 17.8458 10.0392C17.8458 10.0392 17.8125 11.5963 16.2317 12.387C13.8583 13.5739 12.8977 14.7819 12.513 15.6362C11.121 15.7913 10.0379 16.9714 10.0379 18.4046V20.0777C9.42222 20.0777 8.92253 20.5774 8.92253 21.1931V27.8856C8.92253 29.7328 10.4216 31.2319 12.2688 31.2319H25.6538C27.5009 31.2319 29 29.7328 29 27.8856V21.1931C29 20.5774 28.5003 20.0777 27.8846 20.0777V18.4046C27.8846 17.0059 26.8518 15.8504 25.5076 15.6507C25.1797 14.291 24.3354 13.0339 23.3315 11.991C21.6116 10.2063 19.4933 9.0585 19.4933 9.0585C19.3205 8.96488 19.1298 8.92007 18.9388 8.92355L18.9389 8.92377ZM19.6761 11.8126C20.2905 12.2431 21.0425 12.8344 21.7239 13.5405C22.3127 14.153 22.8649 14.8511 23.1717 15.6162H15.3969C15.813 15.2325 16.4041 14.7963 17.2284 14.3838C18.5958 13.7011 19.3064 12.6882 19.6756 11.8128L19.6761 11.8126ZM12.8261 17.8471H25.0957C25.4034 17.8471 25.6534 18.0971 25.6534 18.4048V20.0779H12.2684V18.4048C12.2684 18.0971 12.5184 17.8471 12.8261 17.8471ZM11.153 22.3088H26.7688V27.8858C26.7688 28.5016 26.2691 29.0012 25.6534 29.0012H12.2684C11.6527 29.0012 11.153 28.5016 11.153 27.8858V22.3088Z" fill="#023632"/>
</svg>
