<svg width="23" height="32" viewBox="0 0 23 32" fill="none" xmlns="http://www.w3.org/2000/svg">
<path d="M6.53431 7.125C6.48919 5.85042 6.5256 4.50062 6.97448 3.44612C7.21119 2.89196 7.5524 2.44387 8.0464 2.12642C8.54277 1.80817 9.25527 1.58333 10.2971 1.58333C11.4648 1.58333 12.4378 2.00767 13.1344 2.44942C13.4804 2.6695 13.7504 2.88879 13.9316 3.05108C14.0163 3.12728 14.0981 3.2065 14.1771 3.28858L14.185 3.2965V3.29729C14.254 3.37506 14.3377 3.43846 14.4312 3.48389C14.5248 3.52932 14.6263 3.55588 14.7301 3.56205C14.8339 3.56823 14.9379 3.5539 15.0362 3.51988C15.1344 3.48586 15.225 3.43282 15.3028 3.36379C15.3806 3.29476 15.444 3.21109 15.4894 3.11755C15.5348 3.02402 15.5614 2.92245 15.5676 2.81865C15.5737 2.71485 15.5594 2.61085 15.5254 2.51258C15.4914 2.41432 15.4383 2.32372 15.3693 2.24596L14.7874 2.76054C15.3693 2.24596 15.3677 2.24437 15.3677 2.24437L15.3646 2.24042L15.3566 2.2325C15.3255 2.19725 15.2933 2.16292 15.2601 2.12958C15.1721 2.04116 15.0815 1.95536 14.9885 1.87229C14.6741 1.59264 14.3379 1.3385 13.9831 1.11229C13.1202 0.566833 11.8535 0 10.2971 0C9.02569 0 7.99889 0.276291 7.19139 0.794041C6.38152 1.31417 5.85348 2.03696 5.51781 2.82546C4.93356 4.19742 4.90506 5.83221 4.94939 7.125H0.751186C0.313395 7.125 -0.0452301 7.48125 0.00464488 7.91508C0.49152 12.1742 4.88131 15.5491 10.3422 15.8159V22.1667H11.9256V15.8064C13.2433 15.7278 14.5424 15.4557 15.781 14.9989C15.7889 15.0897 15.7929 15.1839 15.7929 15.2815C15.7929 15.8848 15.2996 16.6068 14.2879 17.2338C13.7691 17.5507 13.2103 17.7967 12.6262 17.9653V19.6009C13.5073 19.3971 14.3497 19.0522 15.1207 18.5796C16.2869 17.86 17.3762 16.7224 17.3762 15.2823C17.3762 14.9578 17.3461 14.6371 17.2788 14.326C19.9444 12.8978 21.7755 10.5798 22.0811 7.91587C22.1309 7.48204 21.7715 7.12579 21.3345 7.12579L6.53431 7.125Z" fill="#023632"/>
<path d="M15.7923 27.7088C15.7923 28.6311 15.5073 29.441 14.9856 30.0838H17.3757V31.6671H4.70898V30.0838H10.3417V26.9171H11.925V30.0157C12.5599 29.912 13.0619 29.6959 13.4229 29.4117C13.9177 29.0237 14.209 28.4648 14.209 27.7088C14.209 26.9527 13.9177 26.3946 13.4229 26.0059C12.9083 25.6006 12.1071 25.333 11.0423 25.333C9.84136 25.333 8.50898 25.2388 7.45528 24.7709C6.91378 24.5302 6.41423 24.1772 6.05165 23.6602C5.6859 23.1377 5.50065 22.5036 5.50065 21.7713C5.50065 21.039 5.6859 20.4049 6.05165 19.8824C6.41423 19.3654 6.91457 19.0123 7.45528 18.7717C8.05694 18.5041 8.75123 18.3584 9.45898 18.2832V19.8768C8.93807 19.9425 8.47573 20.051 8.09811 20.2188C7.74898 20.374 7.50673 20.5656 7.34919 20.7904C7.19561 21.0097 7.08398 21.3161 7.08398 21.7713C7.08398 22.2265 7.19482 22.5329 7.34919 22.7522C7.50673 22.977 7.74898 23.1686 8.09811 23.3237C8.82644 23.6475 9.86828 23.7505 11.0423 23.7505C12.3517 23.7505 13.5313 24.0774 14.4014 24.7606C15.292 25.4605 15.7923 26.4857 15.7923 27.7088Z" fill="#023632"/>
</svg>
