<svg width="22" height="22" viewBox="0 0 22 22" fill="none" xmlns="http://www.w3.org/2000/svg">
<path d="M8.48089 1.04492V3.06092C8.48089 3.61692 8.00589 4.05892 7.52089 4.33292C6.60689 4.85192 5.96289 6.03992 5.96289 7.09092C5.96289 7.759 6.22828 8.39972 6.70069 8.87212C7.17309 9.34453 7.81381 9.60992 8.48189 9.60992C9.14997 9.60992 9.79069 9.34453 10.2631 8.87212C10.7355 8.39972 11.0009 7.759 11.0009 7.09092C11.0009 7.759 11.2663 8.39972 11.7387 8.87212C12.2111 9.34453 12.8518 9.60992 13.5199 9.60992C14.188 9.60992 14.8287 9.34453 15.3011 8.87212C15.7735 8.39972 16.0389 7.759 16.0389 7.09092C16.0389 6.03992 15.3949 4.85092 14.4799 4.33292C13.9959 4.05892 13.5199 3.61692 13.5199 3.06092V1.04492M8.51989 20.9999V18.9849C8.51989 18.4279 8.04389 17.9859 7.55989 17.7119C6.64389 17.1939 6.00089 16.0059 6.00089 14.9539C6.00089 14.2858 6.26628 13.6451 6.73869 13.1727C7.21109 12.7003 7.85181 12.4349 8.51989 12.4349C9.18797 12.4349 9.82869 12.7003 10.3011 13.1727C10.7735 13.6451 11.0389 14.2858 11.0389 14.9539C11.0389 14.2858 11.3043 13.6451 11.7767 13.1727C12.2491 12.7003 12.8898 12.4349 13.5579 12.4349C14.226 12.4349 14.8667 12.7003 15.3391 13.1727C15.8115 13.6451 16.0769 14.2858 16.0769 14.9539C16.0769 16.0059 15.4329 17.1939 14.5179 17.7119C14.0339 17.9859 13.5579 18.4279 13.5579 18.9849V20.9999" stroke="#023632" stroke-linecap="round" stroke-linejoin="round"/>
<path d="M1 11C1 6.286 1 3.929 2.464 2.464C3.93 1 6.286 1 11 1C15.714 1 18.071 1 19.535 2.464C21 3.93 21 6.286 21 11C21 15.714 21 18.071 19.535 19.535C18.072 21 15.714 21 11 21C6.286 21 3.929 21 2.464 19.535C1 18.072 1 15.714 1 11Z" stroke="#023632"/>
</svg>
