<svg width="17" height="42" viewBox="0 0 17 42" fill="none" xmlns="http://www.w3.org/2000/svg">
<path d="M10.6348 2.49805H16.0006" stroke="#023632" stroke-width="1.84668" stroke-miterlimit="10" stroke-linecap="round" stroke-linejoin="round"/>
<path d="M4.67188 5.18164H11.6971V9.03035H4.67188V5.18164Z" stroke="#023632" stroke-width="1.84668" stroke-miterlimit="10" stroke-linecap="round" stroke-linejoin="round"/>
<path d="M15.3666 14.0286V39.4552C15.3666 39.9738 14.9453 40.3951 14.4349 40.3951H1.93171C1.42129 40.3951 1 39.9738 1 39.4552V14.0286C3.60906 14.0286 5.73199 11.9136 5.73199 9.29663V9.0293H10.6343V9.29663C10.6343 11.9136 12.7576 14.0286 15.3666 14.0286Z" stroke="#023632" stroke-width="1.84668" stroke-miterlimit="10" stroke-linecap="round" stroke-linejoin="round"/>
<path d="M11.1205 27.1274C11.1205 28.7497 9.80557 30.0646 8.18329 30.0646C6.56101 30.0646 5.24609 28.7497 5.24609 27.1274C5.24609 25.5051 8.18329 20.1387 8.18329 20.1387C8.18329 20.1387 11.1205 25.5051 11.1205 27.1274Z" stroke="#023632" stroke-width="1.84668" stroke-miterlimit="10" stroke-linecap="round" stroke-linejoin="round"/>
<path d="M5.73242 1H10.6347V5.18095H5.73242V1Z" stroke="#023632" stroke-width="1.84668" stroke-miterlimit="10" stroke-linecap="round" stroke-linejoin="round"/>
</svg>
