<svg width="75" height="72" viewBox="0 0 75 72" fill="none" xmlns="http://www.w3.org/2000/svg">
<path fill-rule="evenodd" clip-rule="evenodd" d="M17.8478 35.5371C8.02231 35.5371 0 43.6408 0 53.5447C0 63.4784 8.02231 71.5858 17.8478 71.5858C27.7036 71.5858 35.6956 63.4749 35.6956 53.5447C35.6956 43.6456 27.7036 35.5371 17.8478 35.5371ZM17.8478 38.9466C25.8404 38.9466 32.2866 45.4707 32.2866 53.5441C32.2866 61.6544 25.8398 68.1756 17.8478 68.1756C9.89262 68.1756 3.409 61.6503 3.409 53.5441C3.409 45.4748 9.89277 38.9466 17.8478 38.9466Z" fill="#023632"/>
<path fill-rule="evenodd" clip-rule="evenodd" d="M61.5654 16.3594C54.1506 16.3594 48.1289 22.4649 48.1289 29.9237C48.1289 37.4109 54.1506 43.5207 61.5654 43.5207C68.9801 43.5207 75.0012 37.4109 75.0012 29.9237C75.0012 22.4649 68.9806 16.3594 61.5654 16.3594ZM61.5654 19.7688C67.1186 19.7688 71.5918 24.2866 71.5918 29.9231C71.5918 35.5982 67.1186 40.1117 61.5654 40.1117C56.0121 40.1117 51.5384 35.5982 51.5384 29.9231C51.5384 24.2859 56.0121 19.7688 61.5654 19.7688Z" fill="#023632"/>
<path fill-rule="evenodd" clip-rule="evenodd" d="M31.8474 0C25.362 0 20.082 5.36789 20.082 11.8937C20.082 18.4196 25.3618 23.7873 31.8474 23.7873C38.333 23.7873 43.6122 18.4195 43.6122 11.8937C43.6122 5.36774 38.3335 0 31.8474 0ZM31.8474 3.40884C36.4584 3.40884 40.2032 7.19528 40.2032 11.8937C40.2032 16.5927 36.4584 20.3779 31.8474 20.3779C27.2364 20.3779 23.4916 16.5927 23.4916 11.8937C23.4916 7.19467 27.2364 3.40884 31.8474 3.40884Z" fill="#023632"/>
<path fill-rule="evenodd" clip-rule="evenodd" d="M22.705 42.3836C21.95 42.4121 21.3032 42.9347 21.117 43.6677C20.931 44.4002 21.2496 45.1683 21.9 45.5536C26.6336 48.4477 28.0948 55.7042 23.4017 60.0536V60.0542C23.0617 60.3591 22.859 60.7878 22.8381 61.2444C22.8173 61.7003 22.9802 62.1462 23.2906 62.4809C23.6015 62.8162 24.0331 63.0124 24.4897 63.0261C24.9463 63.0398 25.3892 62.8697 25.7191 62.554C32.0554 56.6815 30.3081 46.7 23.6776 42.6455H23.6782C23.3875 42.4624 23.0486 42.3715 22.705 42.3839L22.705 42.3836Z" fill="#023632"/>
<path fill-rule="evenodd" clip-rule="evenodd" d="M64.0567 22.0918C63.332 22.1013 62.6917 22.5674 62.4617 23.2547C62.231 23.9419 62.4605 24.6999 63.0336 25.144C64.8493 26.5928 65.694 28.0797 65.8195 29.5975C65.945 31.1153 65.36 32.8703 63.6103 34.8881C62.9979 35.5997 63.0758 36.6729 63.7856 37.2882C64.4955 37.9035 65.5686 37.8292 66.1868 37.1217C68.3478 34.6295 69.434 31.9418 69.217 29.317C69 26.6923 67.4888 24.3374 65.1601 22.4789H65.1595C64.8492 22.2239 64.4586 22.087 64.0567 22.0918Z" fill="#023632"/>
<path fill-rule="evenodd" clip-rule="evenodd" d="M34.998 5.99247C34.2727 5.97939 33.6187 6.42646 33.3672 7.10657C33.1164 7.7867 33.3226 8.55123 33.8821 9.0125C35.4736 10.3638 35.6407 13.5955 34.0955 14.9493C33.7507 15.2459 33.5384 15.6681 33.5063 16.1223C33.4742 16.5759 33.6252 17.0235 33.9249 17.366C34.2245 17.7078 34.649 17.9159 35.1026 17.9438C35.5568 17.9718 36.0033 17.8166 36.3427 17.5134C39.6773 14.5914 39.3772 9.20452 36.0889 6.41328C35.7857 6.14872 35.3999 6.0002 34.998 5.99247Z" fill="#023632"/>
</svg>
